<svg xmlns="http://www.w3.org/2000/svg" width="55" height="55" viewBox="0 0 55 55"><defs><style>.cls-1,.cls-2,.cls-3,.cls-4{fill:none;stroke-linecap:round;stroke-linejoin:round;}.cls-1,.cls-3,.cls-4{stroke:#00a9ce;}.cls-1,.cls-2{stroke-width:2px;}.cls-2{stroke:#aff198;}.cls-3{stroke-width:1.5px;}</style></defs><g id="Layer_13" data-name="Layer 13"><line class="cls-1" x1="27.5" y1="33.27" x2="27.5" y2="47.01"/><line class="cls-1" x1="27.5" y1="7.99" x2="27.5" y2="18.43"/><line class="cls-1" x1="18.39" y1="32.49" x2="9.73" y2="37.48"/><line class="cls-1" x1="45.27" y1="16.97" x2="35.25" y2="22.75"/><line class="cls-1" x1="9.69" y1="16.94" x2="20.46" y2="23.16"/><polyline class="cls-1" points="45.27 37.48 36.69 32.53 45.27 37.48"/><line class="cls-2" x1="30.17" y1="48.99" x2="45.36" y2="40.22"/><line class="cls-2" x1="9.73" y1="40.27" x2="24.83" y2="48.99"/><line class="cls-2" x1="7.32" y1="18.32" x2="7.32" y2="36.02"/><line class="cls-2" x1="24.72" y1="5.53" x2="9.73" y2="14.18"/><line class="cls-2" x1="45.36" y1="14.23" x2="30.15" y2="5.45"/><line class="cls-2" x1="47.68" y1="36.02" x2="47.68" y2="18.43"/><path class="cls-2" d="M36.32,25.66a3.19,3.19,0,0,0,.06-.54A3.07,3.07,0,0,0,33.32,22a3.11,3.11,0,0,0-1.06.19,6.24,6.24,0,0,0-12,2.42c0,.14,0,.28,0,.43a4.08,4.08,0,0,0,.4,8.13l13.59.06a4.07,4.07,0,0,0,2-7.61Z"/><circle class="cls-1" cx="7.32" cy="15.57" r="2.75"/><circle class="cls-1" cx="7.32" cy="38.76" r="2.75"/><circle class="cls-1" cx="47.68" cy="15.69" r="2.75"/><circle class="cls-1" cx="47.68" cy="38.76" r="2.75"/><circle class="cls-1" cx="27.42" cy="5.25" r="2.75"/><circle class="cls-1" cx="27.42" cy="49.75" r="2.75"/><path class="cls-3" d="M29.32,24.07a5.72,5.72,0,0,1-1.63-.74,5.72,5.72,0,0,1-1.63.74,5.81,5.81,0,0,1-1.61.24V27.8a2.25,2.25,0,0,0,1.1,1.93L27.69,31l2.15-1.29a2.25,2.25,0,0,0,1.1-1.93V24.32A6,6,0,0,1,29.32,24.07Z"/><path class="cls-4" d="M26.49,27.11l.75.75,1.61-1.62"/></g></svg>