<?xml version="1.0" encoding="UTF-8"?>
<svg id="Layer_1" data-name="Layer 1" xmlns="http://www.w3.org/2000/svg" viewBox="0 0 55 60">
  <defs>
    <style>
      .cls-1 {
        fill: #b5d995;
      }

      .cls-2 {
        fill: #00a9ce;
        opacity: .42;
      }
    </style>
  </defs>
  <rect class="cls-2" width="50" height="50" rx="5.643" ry="5.643"/>
  <g>
    <path class="cls-1" d="M22.7832,32.8769c-3.9766,0-7.2119-3.1748-7.2119-7.0781s3.2354-7.0786,7.2119-7.0786c.2764,0,.5.2236.5.5s-.2236.5-.5.5c-3.4248,0-6.2119,2.7271-6.2119,6.0786s2.7871,6.0781,6.2119,6.0781c.2764,0,.5.2236.5.5s-.2236.5-.5.5Z"/>
    <path class="cls-1" d="M22.7832,40.4394h-3.3877c-.2764,0-.5-.2236-.5-.5v-3.8057c-.2764-.1006-.5518-.2129-.8242-.3359l-2.7578,2.6982c-.1943.1904-.5059.1895-.7002-.001l-4.7852-4.7002c-.0957-.0938-.1494-.2227-.1494-.3574,0-.1338.0547-.2627.1504-.3564l2.7471-2.6875c-.1182-.2529-.2275-.5117-.3262-.7744h-3.8936c-.2764,0-.5-.2236-.5-.5v-6.6401c0-.2764.2236-.5.5-.5h3.8936c.0986-.2622.208-.521.3262-.7749l-2.7471-2.6875c-.0957-.0938-.1504-.2227-.1504-.3569s.0537-.2632.1494-.3574l4.7852-4.7002c.1953-.1899.5068-.1914.7002-.001l2.7578,2.6982c.2695-.1226.5449-.2349.8242-.3364v-3.8052c0-.2764.2236-.5.5-.5h3.3877c.2764,0,.5.2236.5.5s-.2236.5-.5.5h-2.8877v3.6616c0,.2163-.1387.4077-.3447.4751-.4648.1523-.9229.3389-1.3584.5542-.1904.0933-.4199.0581-.5713-.0908l-2.6562-2.5991-4.0723,4,2.6406,2.583c.1562.1528.1953.3896.0957.5845-.2148.4219-.4004.8638-.5527,1.313-.0684.2031-.2588.3398-.4736.3398h-3.7461v5.6401h3.7461c.2139,0,.4043.1367.4736.3398.1523.4492.3389.8916.5527,1.3135.0996.1943.0605.4316-.0957.584l-2.6406,2.583,4.0723,3.999,2.6562-2.5986c.1514-.1484.3799-.1846.5703-.0918.4443.2188.9014.4053,1.3584.5537.2061.0674.3457.2588.3457.4756v3.6621h2.8877c.2764,0,.5.2236.5.5s-.2236.5-.5.5Z"/>
    <path class="cls-1" d="M22.7832,40.4394c-.2764,0-.5-.2236-.5-.5V11.6577c0-.2764.2236-.5.5-.5s.5.2236.5.5v28.2817c0,.2764-.2236.5-.5.5Z"/>
    <path class="cls-1" d="M33.4541,26.5498h-10.6709c-.2764,0-.5-.2236-.5-.5s.2236-.5.5-.5h10.6709c.2764,0,.5.2236.5.5s-.2236.5-.5.5Z"/>
    <path class="cls-1" d="M36.0489,28.5596c-1.5479,0-2.8066-1.2383-2.8066-2.7607s1.2588-2.7617,2.8066-2.7617,2.8076,1.2388,2.8076,2.7617-1.2598,2.7607-2.8076,2.7607ZM36.0489,24.0371c-.9961,0-1.8066.7905-1.8066,1.7617,0,.9707.8105,1.7607,1.8066,1.7607.9971,0,1.8076-.79,1.8076-1.7607,0-.9712-.8105-1.7617-1.8076-1.7617Z"/>
    <path class="cls-1" d="M31.2422,43.0693c-1.5479,0-2.8066-1.2383-2.8066-2.7607s1.2588-2.7617,2.8066-2.7617,2.8076,1.2393,2.8076,2.7617-1.2598,2.7607-2.8076,2.7607ZM31.2422,38.5469c-.9961,0-1.8066.79-1.8066,1.7617,0,.9707.8105,1.7607,1.8066,1.7607.9971,0,1.8076-.79,1.8076-1.7607,0-.9717-.8105-1.7617-1.8076-1.7617Z"/>
    <path class="cls-1" d="M31.2422,38.4531c-.2764,0-.5-.2236-.5-.5v-5.0762h-7.959c-.2764,0-.5-.2236-.5-.5s.2236-.5.5-.5h8.459c.2764,0,.5.2236.5.5v5.5762c0,.2764-.2236.5-.5.5Z"/>
    <path class="cls-1" d="M31.2422,14.5527c-1.5479,0-2.8066-1.2388-2.8066-2.7612s1.2588-2.7612,2.8066-2.7612,2.8076,1.2388,2.8076,2.7612-1.2598,2.7612-2.8076,2.7612ZM31.2422,10.0303c-.9961,0-1.8066.79-1.8066,1.7612s.8105,1.7612,1.8066,1.7612c.9971,0,1.8076-.79,1.8076-1.7612s-.8105-1.7612-1.8076-1.7612Z"/>
    <path class="cls-1" d="M31.2422,20.2226h-8.459c-.2764,0-.5-.2236-.5-.5s.2236-.5.5-.5h7.959v-5.0757c0-.2764.2236-.5.5-.5s.5.2236.5.5v5.5757c0,.2764-.2236.5-.5.5Z"/>
  </g>
</svg>