<svg id="Security_Service_Edge_SSE" data-name="Security Service Edge SSE" xmlns="http://www.w3.org/2000/svg" width="55" height="55" viewBox="0 0 55 55"><defs><style>.cls-1,.cls-2{fill:none;stroke-linecap:round;stroke-linejoin:round;stroke-width:2px;}.cls-1{stroke:#00a9ce;}.cls-2{stroke:#aff198;}</style></defs><circle class="cls-1" cx="27.61" cy="5.22" r="3.47"/><circle class="cls-1" cx="47.89" cy="40.57" r="3.47"/><circle class="cls-1" cx="6.97" cy="41.01" r="3.47"/><polygon class="cls-2" points="24.39 29.32 26.36 31.28 30.44 27.03 26.36 31.28 24.39 29.32"/><path class="cls-2" d="M3.79,33.61a24.56,24.56,0,0,1-.41-4.48A24.14,24.14,0,0,1,19.5,6.36"/><path class="cls-2" d="M43.47,47.21a24.14,24.14,0,0,1-31.75.17"/><path class="cls-2" d="M35.59,6.39a24.13,24.13,0,0,1,16,22.74,24.48,24.48,0,0,1-.41,4.48"/><line class="cls-2" x1="27.6" y1="41.5" x2="27.74" y2="52.7"/><line class="cls-2" x1="6.95" y1="17.59" x2="17.72" y2="23.4"/><line class="cls-2" x1="47.98" y1="16.94" x2="37.26" y2="23.24"/><path class="cls-1" d="M21.61,18.52a8.8,8.8,0,0,1-3.1-1.31c-.33-.16-.66,0-.66.33V32.75a4.67,4.67,0,0,0,2.29,4.09l6.38,4.09a2.12,2.12,0,0,0,2,0l6.38-4.09a4.67,4.67,0,0,0,2.29-4.09V17.54c0-.33-.33-.65-.66-.33a13.7,13.7,0,0,1-3.1,1.31A24,24,0,0,1,21.61,18.52Z"/></svg>