<?xml version="1.0" encoding="UTF-8"?>
<svg id="Layer_1" data-name="Layer 1" xmlns="http://www.w3.org/2000/svg" viewBox="0 0 55 60">
  <defs>
    <style>
      .cls-1 {
        fill: #b5d995;
      }

      .cls-2 {
        fill: #00a9ce;
        opacity: .42;
      }
    </style>
  </defs>
  <rect class="cls-2" width="50" height="50" rx="5.643" ry="5.643"/>
  <g>
    <path class="cls-1" d="M28.6737,35.2119c-.0859,0-.1719-.0225-.249-.0664l-15.6279-8.9756c-.1553-.0889-.251-.2539-.251-.4326s.0947-.3438.249-.4336l1.8936-1.0991c.2363-.1377.5439-.0581.6836.1816.1387.2388.0576.5449-.1816.6836l-1.1445.6646,14.627,8.4004,10.3174-5.9883-.541-.3105c-.2393-.1377-.3223-.4434-.1846-.6826.1377-.2412.4443-.3223.6826-.1846l1.292.7422c.1553.0889.251.2539.251.4326s-.0947.3438-.249.4336l-11.3164,6.5674c-.0771.0449-.1641.0674-.251.0674Z"/>
    <path class="cls-1" d="M28.6825,39.5195c-.0859,0-.1719-.0225-.249-.0664l-15.627-8.9756c-.1553-.0889-.251-.2539-.251-.4326s.0947-.3438.249-.4336l1.8936-1.0986c.2373-.1377.5439-.0586.6836.1816.1387.2393.0576.5449-.1816.6836l-1.1445.6641,14.626,8.4004,10.3184-5.9883-.541-.3105c-.2393-.1377-.3223-.4434-.1846-.6826.1377-.2402.4453-.3213.6826-.1846l1.292.7422c.1553.0889.251.2539.251.4326s-.0947.3438-.249.4336l-11.3174,6.5674c-.0771.0449-.1641.0674-.251.0674Z"/>
    <path class="cls-1" d="M36.0497,26.3808c-.085,0-.1709-.0215-.249-.0664l-11.4375-6.5688-6.5303,3.791c-.2373.1377-.5449.0576-.6836-.1816-.1387-.2388-.0576-.5449.1816-.6836l6.7803-3.9355c.1533-.0889.3447-.0898.5-.001l11.6875,6.7124c.2393.1377.3223.4434.1846.6826-.0928.1611-.2607.251-.4336.251Z"/>
    <path class="cls-1" d="M22.3202,31.5635c-.1719,0-.3398-.0889-.4326-.249-.1387-.2383-.0576-.5449.1816-.6836l1.9209-1.1152c.2363-.1387.5439-.0596.6836.1816.1387.2383.0576.5449-.1816.6836l-1.9209,1.1152c-.0791.0459-.165.0674-.251.0674Z"/>
    <path class="cls-1" d="M26.8827,28.915c-.1719,0-.3398-.0889-.4326-.249-.1387-.2393-.0576-.5449.1816-.6836l6.7539-3.9194c.2363-.1382.5439-.0576.6836.1816.1387.2388.0576.5449-.1816.6836l-6.7539,3.9194c-.0791.0459-.165.0674-.251.0674Z"/>
    <path class="cls-1" d="M35.0087,31.5361c-.085,0-.1709-.0215-.249-.0664l-3.7051-2.1279c-.2393-.1377-.3223-.4434-.1846-.6826.1387-.2412.4453-.3213.6826-.1846l3.7051,2.1279c.2393.1377.3223.4434.1846.6826-.0928.1611-.2607.251-.4336.251Z"/>
    <path class="cls-1" d="M28.6552,27.8867c-.085,0-.1709-.0215-.249-.0664l-4.4492-2.5552c-.2393-.1377-.3223-.4434-.1846-.6826.1377-.2412.4443-.3218.6826-.1846l4.4492,2.5552c.2393.1377.3223.4434.1846.6826-.0928.1611-.2607.251-.4336.251Z"/>
    <path class="cls-1" d="M21.5575,23.81c-.085,0-.1709-.0215-.249-.0664l-2.1768-1.25c-.2393-.1377-.3223-.4429-.1846-.6826.1377-.2407.4453-.3213.6826-.1846l2.1768,1.25c.2393.1377.3223.4429.1846.6826-.0928.1611-.2607.251-.4336.251Z"/>
    <path class="cls-1" d="M39.9775,25.6719c-.0859,0-.1719-.0225-.249-.0664l-15.627-8.9756c-.1553-.0894-.251-.2544-.251-.4336v-5.2163c0-.1782.0947-.3433.25-.4326.1533-.0894.3438-.0903.499-.001l15.627,8.9761c.1553.0894.251.2544.251.4336v5.2158c0,.1782-.0947.3438-.25.4326-.0771.0449-.1631.0674-.25.0674ZM24.8505,15.9067l14.627,8.4014v-4.0625l-14.627-8.4019v4.063Z"/>
    <path class="cls-1" d="M29.3202,19.5488c-.2764,0-.5-.2236-.5-.5v-2.208c0-.2764.2236-.5.5-.5s.5.2236.5.5v2.208c0,.2764-.2236.5-.5.5Z"/>
    <path class="cls-1" d="M26.4726,17.9136c-.2764,0-.5-.2236-.5-.5v-3.0972c0-.2764.2236-.5.5-.5s.5.2236.5.5v3.0972c0,.2764-.2236.5-.5.5Z"/>
    <path class="cls-1" d="M35.0146,22.8193c-.2764,0-.5-.2236-.5-.5v-2.208c0-.2764.2236-.5.5-.5s.5.2236.5.5v2.208c0,.2764-.2236.5-.5.5Z"/>
    <path class="cls-1" d="M37.8603,24.4546c-.2764,0-.5-.2236-.5-.5v-3.0972c0-.2764.2236-.5.5-.5s.5.2236.5.5v3.0972c0,.2764-.2236.5-.5.5Z"/>
    <path class="cls-1" d="M32.1659,21.1841c-.2764,0-.5-.2236-.5-.5v-3.0972c0-.2764.2236-.5.5-.5s.5.2236.5.5v3.0972c0,.2764-.2236.5-.5.5Z"/>
    <path class="cls-1" d="M9.9999,23.5742c-.1719,0-.3398-.0894-.4326-.249-.1387-.2393-.0566-.5449.1816-.6836l10.7939-6.2588c.2373-.1382.5439-.0576.6836.1816.1387.2393.0566.5449-.1816.6836l-10.7939,6.2588c-.0791.0459-.165.0674-.251.0674Z"/>
    <path class="cls-1" d="M20.7939,19.2646c-.2764,0-.5-.2236-.5-.5v-1.4492h-2.8828c-.2764,0-.5-.2236-.5-.5s.2236-.5.5-.5h3.3828c.2764,0,.5.2236.5.5v1.9492c0,.2764-.2236.5-.5.5Z"/>
    <path class="cls-1" d="M13.3857,23.5742h-3.3857c-.2764,0-.5-.2236-.5-.5v-1.9531c0-.2764.2236-.5.5-.5s.5.2236.5.5v1.4531h2.8857c.2764,0,.5.2236.5.5s-.2236.5-.5.5Z"/>
  </g>
</svg>