<?xml version="1.0" encoding="UTF-8"?>
<svg id="Layer_1" data-name="Layer 1" xmlns="http://www.w3.org/2000/svg" viewBox="0 0 55 60">
  <defs>
    <style>
      .cls-1 {
        fill: #b5d995;
      }

      .cls-2 {
        fill: #00a9ce;
        opacity: .42;
      }
    </style>
  </defs>
  <rect class="cls-2" width="50" height="50" rx="5.643" ry="5.643"/>
  <g>
    <path class="cls-1" d="M17.2414,39.9824h-6.207c-.8457,0-1.5342-.6885-1.5342-1.5342v-15c0-.8462.6885-1.5347,1.5342-1.5347h6.207c.8457,0,1.5342.6885,1.5342,1.5347v15c0,.8457-.6885,1.5342-1.5342,1.5342ZM11.0343,22.9136c-.2949,0-.5342.2397-.5342.5347v15c0,.2949.2393.5342.5342.5342h6.207c.2949,0,.5342-.2393.5342-.5342v-15c0-.2949-.2393-.5347-.5342-.5347h-6.207Z"/>
    <path class="cls-1" d="M20.3449,24.0205c-.1914,0-.375-.1113-.457-.2983-.1123-.2524.0029-.5479.2549-.6592,1.125-.4961,2.2314-1.4541,3.3818-2.9277,1.6611-2.1284,2.0098-3.8735,2.0098-4.9629v-3.6206c0-.8462.6885-1.5347,1.5342-1.5347,1.0361,0,2.04.3672,2.8271,1.0342.791.665,1.3232,1.5962,1.499,2.6196.207,1.187.3125,2.2148.3125,3.0532,0,1.6294-1.0273,4.2148-1.0713,4.3237-.1025.2568-.3926.3823-.6494.2788-.2568-.1025-.3809-.3936-.2783-.6499.0098-.0254.999-2.5161.999-3.9526,0-.7808-.1006-1.751-.2979-2.8828-.1357-.7925-.5469-1.5117-1.1592-2.0259-.6074-.5151-1.3818-.7983-2.1816-.7983-.2949,0-.5342.2397-.5342.5347v3.6206c0,1.2461-.3857,3.2256-2.2207,5.5781-1.2725,1.6299-2.4697,2.6553-3.7666,3.2275-.0664.0288-.1348.0425-.2021.0425Z"/>
    <path class="cls-1" d="M37.672,26.0176h-1.8096c-.2764,0-.5-.2236-.5-.5s.2236-.5.5-.5h1.8096c1.0078,0,1.8281-.8203,1.8281-1.8281s-.8203-1.8271-1.8281-1.8271h-7.5c-.2764,0-.5-.2236-.5-.5s.2236-.5.5-.5h7.5c1.5596,0,2.8281,1.2681,2.8281,2.8271s-1.2686,2.8281-2.8281,2.8281Z"/>
    <path class="cls-1" d="M37.1554,30.6728h-1.8105c-.2764,0-.5-.2236-.5-.5s.2236-.5.5-.5h1.8105c1.0078,0,1.8271-.8203,1.8271-1.8281s-.8193-1.8271-1.8271-1.8271h-1.8105c-.2764,0-.5-.2236-.5-.5s.2236-.5.5-.5h1.8105c1.5586,0,2.8271,1.2686,2.8271,2.8271,0,1.5596-1.2686,2.8281-2.8271,2.8281Z"/>
    <path class="cls-1" d="M36.6378,35.3271h-2.3271c-.2764,0-.5-.2236-.5-.5s.2236-.5.5-.5h2.3271c1.0078,0,1.8281-.8193,1.8281-1.8271s-.8203-1.8271-1.8281-1.8271h-1.8105c-.2764,0-.5-.2236-.5-.5s.2236-.5.5-.5h1.8105c1.5596,0,2.8281,1.2686,2.8281,2.8271s-1.2686,2.8271-2.8281,2.8271Z"/>
    <path class="cls-1" d="M35.6037,39.9824h-11.5498c-.9668,0-1.9609-.2354-2.9541-.6982-.3018-.1416-.6074-.2578-.9082-.3555-.2637-.085-.4072-.3662-.3223-.6289s.3672-.4082.6289-.3223c.3652.1172.71.2529,1.0264.4014.8584.4004,1.71.6035,2.5293.6035h11.5498c.4912,0,.9492-.1895,1.2881-.5342.3496-.3447.5391-.8018.5391-1.293,0-1.0078-.8193-1.8281-1.8271-1.8281h-.2588c-.2764,0-.5-.2236-.5-.5s.2236-.5.5-.5h.2588c1.5586,0,2.8271,1.2686,2.8271,2.8281,0,.7598-.2949,1.4707-.8311,2-.5244.5322-1.2344.8271-1.9961.8271Z"/>
    <path class="cls-1" d="M14.1378,27.0517c-.5615,0-1.0176-.4561-1.0176-1.0176,0-.5605.4561-1.0166,1.0176-1.0166s1.0176.4561,1.0176,1.0166c0,.5615-.4561,1.0176-1.0176,1.0176ZM14.1378,26.0176l.0176.0166c0-.0088-.0078-.0166-.0176-.0166Z"/>
  </g>
</svg>