<?xml version="1.0" encoding="UTF-8"?>
<svg id="Layer_1" data-name="Layer 1" xmlns="http://www.w3.org/2000/svg" viewBox="0 0 55 60">
  <defs>
    <style>
      .cls-1 {
        fill: #b5d995;
      }

      .cls-2 {
        fill: #00a9ce;
        opacity: .42;
      }
    </style>
  </defs>
  <rect class="cls-2" width="50" height="50" rx="5.643" ry="5.643"/>
  <g>
    <path class="cls-1" d="M34.501,36.3467h-.0293l-19.9995-.0869c-1.7363-.0078-3.3657-.6914-4.5879-1.9238-1.2227-1.2334-1.8916-2.8691-1.8838-4.6045.0137-3.1738,2.2881-5.834,5.3652-6.3721-.0024-.0654-.0039-.1313-.0034-.1978.0229-5.3398,4.3931-9.6372,9.7271-9.6426,3.7183.0161,7.0776,2.1523,8.6821,5.4795.4355-.1191.9102-.1865,1.2949-.1763,1.3408.0059,2.5986.5332,3.543,1.4854.9434.9517,1.46,2.2144,1.4541,3.5547-.001.188-.0156.3672-.0361.5288,1.8516,1.1997,2.9824,3.27,2.9727,5.4839-.0156,3.5742-2.9287,6.4717-6.499,6.4717ZM23.0469,14.519c-4.772,0-8.6641,3.8711-8.6846,8.647-.001.1655.0103.3276.021.4902l.0068.1035c.0171.2686-.1812.5024-.4487.5293-2.8047.2827-4.9287,2.624-4.9409,5.4463-.0063,1.4688.5596,2.8525,1.5938,3.8965,1.0347,1.043,2.4131,1.6211,3.8823,1.6279l19.999.0869h.0254c3.0215,0,5.4854-2.4512,5.499-5.4756.0088-1.9717-1.0518-3.8086-2.7676-4.7939-.1836-.1055-.2803-.314-.2432-.522.0508-.2812.0732-.4961.0742-.6968.0049-1.0737-.4092-2.0845-1.1641-2.8467-.7559-.7627-1.7637-1.1851-2.8369-1.1895-.416.0107-.9189.085-1.3906.2573-.249.0894-.5273-.0283-.6318-.2739-1.3613-3.1963-4.4834-5.2715-7.9546-5.2866h-.0386Z"/>
    <path class="cls-1" d="M24.4487,31.8271c-.2764,0-.5-.2236-.5-.5v-9.875l-1.7231,1.3257c-.2192.168-.5322.1279-.7012-.0918-.168-.2188-.1274-.5327.0918-.7012l2.5278-1.9448c.1509-.1157.355-.1353.5254-.0522.1709.0845.2793.2583.2793.4487v10.8906c0,.2764-.2236.5-.5.5Z"/>
  </g>
</svg>